<svg width="653" height="636" viewBox="0 0 653 636" fill="none" xmlns="http://www.w3.org/2000/svg">
<path d="M293.351 289.528V146.24L339 100.59V47.3325" stroke="#F1E7FF" stroke-width="12" stroke-linecap="round"/>
<path d="M293.351 336.023V479.312L339 524.961V578.219" stroke="#F1E7FF" stroke-width="12" stroke-linecap="round"/>
<path d="M300.536 318.271L157.247 318.271L111.598 363.92L58.3401 363.92" stroke="#F1E7FF" stroke-width="12" stroke-linecap="round"/>
<path d="M293.351 454.374L221.495 454.374L175.845 500.023L122.588 500.023" stroke="#F1E7FF" stroke-width="12" stroke-linecap="round"/>
<path d="M182.186 318.271L182.185 246.415L136.536 200.766L136.536 147.508" stroke="#F1E7FF" stroke-width="12" stroke-linecap="round"/>
<path d="M214 318L214 214.907L259.65 169.258L259.65 140" stroke="#F1E7FF" stroke-width="12" stroke-linecap="round"/>
<path d="M244.32 454.374L172.464 454.374L126.814 408.724L57.4949 408.724" stroke="#F1E7FF" stroke-width="12" stroke-linecap="round"/>
<path d="M333.082 409.57L261.227 409.57L215.577 363.92L162.32 363.92" stroke="#F1E7FF" stroke-width="12" stroke-linecap="round"/>
<path d="M182.185 269.24L182.185 197.384L227.835 151.735L227.835 98.4768" stroke="#F1E7FF" stroke-width="12" stroke-linecap="round"/>
<path d="M293.351 383.363V526.652L247.701 572.301V625.559" stroke="#F1E7FF" stroke-width="12" stroke-linecap="round"/>
<path d="M253.196 318.271L109.907 318.271L64.2577 272.621L11 272.621" stroke="#F1E7FF" stroke-width="12" stroke-linecap="round"/>
<path d="M293.156 453.684L191.836 555.004H127.278L89.6186 592.663" stroke="#F1E7FF" stroke-width="12" stroke-linecap="round"/>
<path d="M182.876 318.076L81.5551 216.756L81.5551 152.197L43.8962 114.539" stroke="#F1E7FF" stroke-width="12" stroke-linecap="round"/>
<path d="M293.351 256.137V112.848L247.701 67.1984V13.9407" stroke="#F1E7FF" stroke-width="12" stroke-linecap="round"/>
<circle cx="182" cy="240" r="11" fill="#E9DAFF"/>
<circle cx="294" cy="140" r="11" fill="#E9DAFF"/>
<circle cx="248" cy="11" r="11" fill="#E9DAFF"/>
<circle cx="339" cy="43" r="11" fill="#E9DAFF"/>
<circle cx="215" cy="455" r="11" fill="#E9DAFF"/>
<circle cx="123" cy="500" r="11" fill="#E9DAFF"/>
<circle cx="90" cy="592" r="11" fill="#E9DAFF"/>
<circle cx="248" cy="625" r="11" fill="#E9DAFF"/>
<circle cx="339" cy="578" r="11" fill="#E9DAFF"/>
<circle cx="182" cy="316" r="11" fill="#E9DAFF"/>
<circle cx="159" cy="364" r="11" fill="#E9DAFF"/>
<circle cx="228" cy="98" r="11" fill="#E9DAFF"/>
<circle cx="260" cy="140" r="11" fill="#E9DAFF"/>
<circle cx="295" cy="486" r="11" fill="#E9DAFF"/>
<circle cx="57" cy="409" r="11" fill="#E9DAFF"/>
<circle cx="57" cy="364" r="11" fill="#E9DAFF"/>
<circle cx="11" cy="273" r="11" fill="#E9DAFF"/>
<circle cx="137" cy="146" r="11" fill="#E9DAFF"/>
<circle cx="46" cy="115" r="11" fill="#E9DAFF"/>
<rect x="527" y="291" width="60" height="25" rx="12" fill="#D3C4FF"/>
<rect x="354" y="140" width="233" height="37" rx="12" fill="#FFEFEC"/>
<rect x="354" y="186" width="233" height="37" rx="12" fill="#FFEFEC"/>
<rect x="354" y="232" width="233" height="37" rx="12" fill="#FFEFEC"/>
<rect x="362" y="362" width="56" height="18" fill="#F1E7FF"/>
<rect x="525" y="529" width="56" height="18" fill="#F1E7FF"/>
<rect x="362" y="400" width="225" height="18" fill="#F1E7FF"/>
<rect x="362" y="428" width="225" height="18" fill="#F1E7FF"/>
<rect x="363" y="456" width="225" height="18" fill="#F1E7FF"/>
<rect x="363" y="484" width="133" height="18" fill="#F1E7FF"/>
<path d="M616.5 125C616.5 120.858 613.142 117.5 609 117.5C604.858 117.5 601.5 120.858 601.5 125L616.5 125ZM609 564L652.301 489L565.699 489L609 564ZM601.5 125L601.5 496.5L616.5 496.5L616.5 125L601.5 125Z" fill="#F4ECFF"/>
<path fill-rule="evenodd" clip-rule="evenodd" d="M300.935 215.244C307.411 219.147 313.774 221.033 316.76 220.263C324.25 218.333 324.938 190.935 319.143 180.134C313.349 169.333 283.558 164.625 282.057 186.025C281.536 193.453 284.654 200.081 289.262 205.49L281 244H305L300.935 215.244Z" fill="#B28B67"/>
<path fill-rule="evenodd" clip-rule="evenodd" d="M309.663 168.37C306.384 167.37 301.623 167.031 299.621 167.26C300.76 164.531 301.212 161.49 300.843 158.529C300.485 155.652 299.2 153.202 298.011 150.635C297.463 149.452 296.842 148.275 295.916 147.37C294.972 146.448 293.778 145.84 292.526 145.549C291.245 145.252 289.905 145.277 288.622 145.547C288.054 145.666 287.544 145.925 286.988 146.07C286.418 146.218 286.141 145.861 285.727 145.502C284.73 144.638 283.268 144.211 282.006 144.059C280.59 143.887 279.121 144.101 277.771 144.566C276.457 145.019 275.195 145.755 274.245 146.827C273.822 147.304 273.438 147.847 273.188 148.446C273.086 148.692 273.069 148.838 272.823 148.928C272.596 149.012 272.331 149.014 272.096 149.094C269.83 149.861 267.893 151.612 266.838 153.86C266.223 155.171 265.931 157.48 266.011 160.068C266.091 162.656 268.428 169.408 270.613 171.871C272.564 174.07 275.432 175.52 278.199 176.155C276.362 178.255 275.139 180.878 274.235 183.547C273.253 186.445 272.645 189.457 272.421 192.525C272.208 195.44 272.188 198.524 272.871 201.377C273.511 204.045 274.878 206.234 277.161 207.622C278.206 208.258 279.331 208.736 280.463 209.173C281.578 209.603 282.696 210.022 283.864 210.263C286.075 210.72 288.622 210.642 290.325 208.882C290.939 208.248 291.614 207.451 292.061 206.676C292.222 206.397 292.319 206.215 292.124 205.943C291.889 205.616 291.51 205.366 291.209 205.111C289.493 203.656 288.43 201.713 288.162 199.405C287.891 197.063 288.52 194.039 290.797 193.017C293.608 191.755 296.704 193.204 299.203 194.554C300.265 190.806 302.445 187.431 305.863 185.712C309.645 183.811 313.985 183.588 317.871 181.956C318.884 181.531 319.915 181.048 320.661 180.182C320.972 179.82 321.338 179.35 321.462 178.871C321.626 178.242 321.22 177.715 320.907 177.224C319.245 174.624 312.943 169.37 309.663 168.37Z" fill="black"/>
<rect x="409.1" y="241" width="21" height="36" rx="3" transform="rotate(37.8705 409.1 241)" fill="#151515"/>
<path fill-rule="evenodd" clip-rule="evenodd" d="M274 324L310.631 450.227L327.86 545H345.153L327.891 324H274Z" fill="#997659"/>
<path fill-rule="evenodd" clip-rule="evenodd" d="M257.538 324C260.094 389.574 259.086 425.34 258.514 431.298C257.942 437.256 254.694 477.156 232.564 547H250.55C279.858 479.997 290.089 440.096 293.45 431.298C296.812 422.5 306.739 386.734 321.233 324H257.538Z" fill="#B28B67"/>
<path fill-rule="evenodd" clip-rule="evenodd" d="M273.214 324C282.742 367.435 299.222 436.768 322.653 532H347.946C349.814 434.254 341.867 369.92 328.105 324H273.214Z" fill="#E9E9E9"/>
<path fill-rule="evenodd" clip-rule="evenodd" d="M257.41 324C259.913 389.574 253.426 454.177 233.331 533.021H260.317C289.679 467.018 310.723 402.734 325.106 324H257.41Z" fill="#C1C1C1"/>
<path fill-rule="evenodd" clip-rule="evenodd" d="M230 560L230.915 545.249C230.955 544.609 231.577 544.171 232.205 544.304C240.872 546.146 252.826 542 252.826 542C264.857 550.522 282.201 554.433 288.308 555.604C289.49 555.831 290.248 557.023 289.92 558.18L288.553 563H252.826H231.985L230 560Z" fill="#191847"/>
<path fill-rule="evenodd" clip-rule="evenodd" d="M324 560L324.915 545.249C324.955 544.609 325.577 544.171 326.205 544.304C334.872 546.146 346.826 542 346.826 542C358.857 550.522 376.201 554.433 382.308 555.604C383.49 555.831 384.248 557.023 383.92 558.18L382.553 563H346.826H325.985L324 560Z" fill="#191847"/>
<path fill-rule="evenodd" clip-rule="evenodd" d="M359.348 245.69L324.638 264.7L337.456 278.458L362.677 255.365C375.963 251.704 382.039 249.025 380.904 247.329C379.948 245.9 378.405 245.949 376.985 245.995C375.878 246.031 374.845 246.064 374.22 245.394C372.794 243.863 375.515 238.51 378.315 233.541C381.114 228.573 378.121 229.005 376.409 229.72C370.807 233.512 365.12 238.835 359.348 245.69ZM394.246 272.364L379 280.74L379.868 296.04C379.868 296.04 389.743 288.913 398.238 286.544C409.07 283.524 413.453 281.218 418.746 274.473C421.578 270.864 423.982 263.61 421.286 261.248C420.252 260.341 416.399 262.482 412.468 264.667C409.472 266.332 406.43 268.022 404.556 268.408C402.034 268.927 402.329 265.657 402.565 263.044C402.734 261.17 402.873 259.633 401.918 260.077C397.455 260.154 394.246 272.364 394.246 272.364Z" fill="#997659"/>
<path fill-rule="evenodd" clip-rule="evenodd" d="M307.734 260.465C319.892 260.337 336.104 257.769 353.403 246.789L360.196 261.939C348.264 273.78 331.486 283.51 316.816 283.098C305.255 282.773 299.347 268.789 307.734 260.465Z" fill="#D82911"/>
<path fill-rule="evenodd" clip-rule="evenodd" d="M274.945 364.259C263.387 362.752 252.766 361.367 246.473 362.606C239.411 339.673 245.275 325.234 250.688 311.905C253.95 303.871 257.049 296.241 257.056 287.397C257.075 261.642 277.754 222 280.797 222H281.67H305.783H308.544C309.784 237.937 315.079 255.193 320.407 272.56C321.652 276.615 322.898 280.677 324.095 284.729C344.26 289.307 389.036 273.373 389.036 273.373C389.036 273.373 400.34 296.759 399.487 306.717C373.424 320.331 351.087 326.401 332.683 326.802C333.268 337.721 331.939 348.112 327.474 357.606C321.491 370.327 296.576 367.079 274.945 364.259Z" fill="#E95400"/>
</svg>
